<?xml version="1.0" ?><svg height="48" id="svg6485" version="1.1" viewBox="0 0 48 48" width="48" xmlns="http://www.w3.org/2000/svg" xmlns:cc="http://creativecommons.org/ns#" xmlns:dc="http://purl.org/dc/elements/1.1/" xmlns:inkscape="http://www.inkscape.org/namespaces/inkscape" xmlns:rdf="http://www.w3.org/1999/02/22-rdf-syntax-ns#" xmlns:sodipodi="http://sodipodi.sourceforge.net/DTD/sodipodi-0.dtd" xmlns:svg="http://www.w3.org/2000/svg"><defs id="defs6487"/><g id="layer1" transform="translate(0,-1004.3622)"><text id="text4366" style="font-style:normal;font-weight:normal;font-size:11.25px;line-height:125%;font-family:Sans;letter-spacing:0px;word-spacing:0px;fill:#000000;fill-opacity:1;stroke:none;stroke-width:1px;stroke-linecap:butt;stroke-linejoin:miter;stroke-opacity:1" x="12" xml:space="preserve" y="1036.3622"><tspan id="tspan4368" x="12" y="1036.3622"/></text><g id="text4981" style="font-style:normal;font-variant:normal;font-weight:normal;font-stretch:normal;font-size:12.37186241px;line-height:125%;font-family:'Roboto Condensed';-inkscape-font-specification:'Roboto Condensed, ';letter-spacing:0px;word-spacing:0px;fill:#000000;fill-opacity:1;stroke:none;stroke-width:1px;stroke-linecap:butt;stroke-linejoin:miter;stroke-opacity:1" transform="scale(1.1477838,0.87124422)"/><g id="g6734"><g id="g5994" transform="translate(693.02794,153.17156)"><path d="m -669.02794,851.19064 c -13.25187,0 -24,10.74825 -24,24 0,13.2519 10.74813,24 24,24 13.25187,0 24,-10.7481 24,-24 0,-13.25175 -10.74813,-24 -24,-24 z m 0,1.5 c 12.42359,0 22.5,10.07655 22.5,22.5 0,12.4236 -10.07641,22.5 -22.5,22.5 -12.42359,0 -22.5,-10.0764 -22.5,-22.5 0,-12.42345 10.07641,-22.5 22.5,-22.5 z" id="path5769" style="color:#000000;font-style:normal;font-variant:normal;font-weight:normal;font-stretch:normal;font-size:medium;line-height:normal;font-family:sans-serif;text-indent:0;text-align:start;text-decoration:none;text-decoration-line:none;text-decoration-style:solid;text-decoration-color:#000000;letter-spacing:normal;word-spacing:normal;text-transform:none;direction:ltr;block-progression:tb;writing-mode:lr-tb;baseline-shift:baseline;text-anchor:start;white-space:normal;clip-rule:nonzero;display:inline;overflow:visible;visibility:visible;opacity:1;isolation:auto;mix-blend-mode:normal;color-interpolation:sRGB;color-interpolation-filters:linearRGB;solid-color:#000000;solid-opacity:1;fill:#7cbe95;fill-opacity:1;fill-rule:nonzero;stroke:none;stroke-width:0.99999994;stroke-linecap:round;stroke-linejoin:round;stroke-miterlimit:4;stroke-dasharray:none;stroke-dashoffset:0;stroke-opacity:1;color-rendering:auto;image-rendering:auto;shape-rendering:auto;text-rendering:auto;enable-background:accumulate"/><path d="m -669.02794,855.44059 c -10.90519,0 -19.75,8.84505 -19.75,19.75005 0,10.90515 8.84481,19.75005 19.75,19.75005 10.90519,0 19.75,-8.8449 19.75,-19.75005 0,-10.905 -8.84481,-19.75005 -19.75,-19.75005 z" id="path5771" style="color:#000000;font-style:normal;font-variant:normal;font-weight:normal;font-stretch:normal;font-size:medium;line-height:normal;font-family:sans-serif;text-indent:0;text-align:start;text-decoration:none;text-decoration-line:none;text-decoration-style:solid;text-decoration-color:#000000;letter-spacing:normal;word-spacing:normal;text-transform:none;direction:ltr;block-progression:tb;writing-mode:lr-tb;baseline-shift:baseline;text-anchor:start;white-space:normal;clip-rule:nonzero;display:inline;overflow:visible;visibility:visible;opacity:1;isolation:auto;mix-blend-mode:normal;color-interpolation:sRGB;color-interpolation-filters:linearRGB;solid-color:#000000;solid-opacity:1;fill:#7cbe95;fill-opacity:1;fill-rule:nonzero;stroke:none;stroke-width:0.99999994;stroke-linecap:round;stroke-linejoin:round;stroke-miterlimit:4;stroke-dasharray:none;stroke-dashoffset:0;stroke-opacity:1;color-rendering:auto;image-rendering:auto;shape-rendering:auto;text-rendering:auto;enable-background:accumulate"/><path d="m -669.02794,855.44059 c -10.90519,0 -19.75,8.84505 -19.75,19.75005 0,5.4579 2.21752,10.39755 5.798,13.9728 l 27.92477,-27.92475 c -3.57517,-3.5805 -8.51487,-5.7981 -13.97277,-5.7981 z" id="path5773" style="color:#000000;clip-rule:nonzero;display:inline;overflow:visible;visibility:visible;opacity:1;isolation:auto;mix-blend-mode:normal;color-interpolation:sRGB;color-interpolation-filters:linearRGB;solid-color:#000000;solid-opacity:1;fill:#57a071;fill-opacity:1;fill-rule:nonzero;stroke:none;stroke-width:1.5;stroke-linecap:butt;stroke-linejoin:miter;stroke-miterlimit:4;stroke-dasharray:none;stroke-dashoffset:0;stroke-opacity:1;color-rendering:auto;image-rendering:auto;shape-rendering:auto;text-rendering:auto;enable-background:accumulate"/></g><g id="g4840"><path d="m 32.5,11 c -0.276131,2.8e-5 -0.499972,0.223869 -0.5,0.5 l 0,2 0,0.501953 c -0.0082,-10e-5 -0.01519,0 -0.02344,0 -5.317413,5e-4 -10.636128,0 -15.953124,0 C 14.35734,14.001953 13,15.357237 13,17.023438 L 13,30 11.5,30 c -0.276131,2.8e-5 -0.499972,0.223869 -0.5,0.5 l 0,6 c 2.8e-5,0.276131 0.223869,0.499972 0.5,0.5 l 18,0 c 0.276131,-2.8e-5 0.499972,-0.223869 0.5,-0.5 l 0,-2.5 1.976562,0 C 33.641923,34 35,32.646569 35,30.980469 l 0,-2.361328 1.945312,-3.892579 0.002,0 c 0.0035,-0.0084 0.0067,-0.01684 0.0098,-0.02539 0.0034,-0.0064 0.0067,-0.01295 0.0098,-0.01953 0.0059,-0.01472 0.01113,-0.02971 0.01563,-0.04492 0.01386,-0.0502 0.01979,-0.102263 0.01758,-0.154297 L 37,13.5 l 0,-2 c -2.8e-5,-0.276131 -0.223869,-0.499972 -0.5,-0.5 z m 0.5,1 3,0 0,1 -3,0 z m 0,2 3,0 0,10 -3,0 z m -16.976562,1 c 5.316658,0 10.635473,5e-4 15.953124,0 L 32,15 l 0,9.5 0,0.01367 0,0.0098 c 4.01e-4,0.0091 0.0011,0.01825 0.002,0.02734 0.0032,0.06854 0.0205,0.135691 0.05078,0.197266 L 34,28.644531 l 0,2.337891 c 0,1.1291 -0.893619,2.019531 -2.023438,2.019531 l -1.976562,0 0,-2.476562 c 1.83e-4,-0.0078 1.83e-4,-0.01563 0,-0.02344 -2.8e-5,-0.276131 -0.223869,-0.499972 -0.5,-0.5 l -15.5,0 0,-12.976562 c 0,-1.1291 0.89436,-2.023438 2.023438,-2.023438 z M 16.5,16 c -0.276131,2.8e-5 -0.499972,0.223869 -0.5,0.5 l 0,4 c 2.8e-5,0.276131 0.223869,0.499972 0.5,0.5 l 3.5,0 0,3.5 c 2.8e-5,0.276131 0.223869,0.499972 0.5,0.5 l 3.5,0 0,3.5 c 2.8e-5,0.276131 0.223869,0.499972 0.5,0.5 l 4,0 c 0.276131,-2.8e-5 0.499972,-0.223869 0.5,-0.5 l 0,-4 c -2.8e-5,-0.276131 -0.223869,-0.499972 -0.5,-0.5 l -3.5,0 0,-3 3.5,0 c 0.276131,-2.8e-5 0.499972,-0.223869 0.5,-0.5 l 0,-4 c -2.8e-5,-0.276131 -0.223869,-0.499972 -0.5,-0.5 l -4,0 c -0.276131,2.8e-5 -0.499972,0.223869 -0.5,0.5 l 0,3.5 -3,0 0,-3.5 c -2.8e-5,-0.276131 -0.223869,-0.499972 -0.5,-0.5 z m 0.5,1 3,0 0,3 -3,0 z m 8,0 3,0 0,3 -3,0 z m -4,4 3,0 0,3 -3,0 z m 4,4 3,0 0,3 -3,0 z m 8.308594,0 2.382812,0 L 34.5,27.382812 Z M 12,31 l 1,0 0,4 1,0 0,-3.976562 1,0 L 15,33 l 1,0 0,-1.976562 1,0 L 17,35 l 1,0 0,-3.976562 1,0 L 19,33 l 1,0 0,-1.976562 1,0 L 21,35 l 1,0 0,-3.976562 1,0 L 23,33 l 1,0 0,-1.976562 1,0 L 25,35 l 1,0 0,-3.976562 1,0 L 27,33 l 1,0 0,-1.976562 1,0 L 29,33.5 29,36 12,36 Z" id="rect4557" style="color:#000000;font-style:normal;font-variant:normal;font-weight:normal;font-stretch:normal;font-size:medium;line-height:normal;font-family:sans-serif;text-indent:0;text-align:start;text-decoration:none;text-decoration-line:none;text-decoration-style:solid;text-decoration-color:#000000;letter-spacing:normal;word-spacing:normal;text-transform:none;direction:ltr;block-progression:tb;writing-mode:lr-tb;baseline-shift:baseline;text-anchor:start;white-space:normal;clip-rule:nonzero;display:inline;overflow:visible;visibility:visible;opacity:1;isolation:auto;mix-blend-mode:normal;color-interpolation:sRGB;color-interpolation-filters:linearRGB;solid-color:#000000;solid-opacity:1;fill:#ffffff;fill-opacity:1;fill-rule:nonzero;stroke:none;stroke-width:1;stroke-linecap:round;stroke-linejoin:round;stroke-miterlimit:4;stroke-dasharray:none;stroke-dashoffset:0;stroke-opacity:1;color-rendering:auto;image-rendering:auto;shape-rendering:auto;text-rendering:auto;enable-background:accumulate" transform="translate(0,1004.3622)"/></g></g></g></svg>